# xmcd
#
# Track frame offsets:
#	150
#	10293
#	22930
#	37279
#	50172
#	63046
#	75481
#	87183
#	97026
#	110882
#	123268
#	134523
#	147221
#	158159
#	169884
#	184853
#	198024
#	205365
#	214009
#	227318
#	238562
#	247205
#
# Disc length: 3442 seconds
#
# Revision: 1
# Processed by: cddbd v1.5.2PL0 Copyright (c) Steve Scherf et al.
# Submitted via: EasyCDDAExtractor 16.0.1.1
#
DISCID=340d7016
DTITLE=Wilf Carter [Montana Slim] - Montana Slim -64 and Montana Slim -66
DYEAR=1966
DGENRE=Country
TTITLE0=Two Little Girls In Blue
TTITLE1=Put My Little Shoes Away
TTITLE2=Daddy And Home
TTITLE3=One Golden Curl
TTITLE4=Hey Hey Mr Dj
TTITLE5=Grandad's Yodelling Song
TTITLE6=Lonesome For My Baby Tonight
TTITLE7=Shoo Shoo Shoo She Lah Lah
TTITLE8=Two Little Stars
TTITLE9=The Little Shirt My Mother Made For Me
TTITLE10=K P Blues
TTITLE11=On Top Of Old Smokey
TTITLE12=A Drunkard's Child
TTITLE13=Pistol Packin' Papa
TTITLE14=Jack And Nell
TTITLE15=A Mother's Son In Vietnam
TTITLE16=Ragged But I'm Right
TTITLE17=I Love My Yodelling Man
TTITLE18=My Mother Was A Lady
TTITLE19=Frankie And Johnny
TTITLE20=Old Number Nine
TTITLE21=A Sailer's Plea
EXTD=
EXTT0=
EXTT1=
EXTT2=
EXTT3=
EXTT4=
EXTT5=
EXTT6=
EXTT7=
EXTT8=
EXTT9=
EXTT10=
EXTT11=
EXTT12=
EXTT13=
EXTT14=
EXTT15=
EXTT16=
EXTT17=
EXTT18=
EXTT19=
EXTT20=
EXTT21=
PLAYORDER=
